<mxfile host="app.diagrams.net" modified="2021-09-18T14:34:16.052Z" agent="5.0 (Windows NT 10.0; Win64; x64) AppleWebKit/537.36 (KHTML, like Gecko) Chrome/93.0.4577.63 Safari/537.36" etag="1VztU1j203dV1elTPRkM" version="15.2.9" type="gitlab">
  <diagram id="C5RBs43oDa-KdzZeNtuy" name="Page-1">
    <mxGraphModel dx="1422" dy="762" grid="1" gridSize="10" guides="1" tooltips="1" connect="1" arrows="1" fold="1" page="1" pageScale="1" pageWidth="827" pageHeight="1169" math="0" shadow="0">
      <root>
        <mxCell id="WIyWlLk6GJQsqaUBKTNV-0" />
        <mxCell id="WIyWlLk6GJQsqaUBKTNV-1" parent="WIyWlLk6GJQsqaUBKTNV-0" />
        <mxCell id="WIyWlLk6GJQsqaUBKTNV-2" value="" style="rounded=0;html=1;jettySize=auto;orthogonalLoop=1;fontSize=11;endArrow=classicThin;endFill=1;endSize=8;strokeWidth=1;shadow=0;labelBackgroundColor=none;edgeStyle=orthogonalEdgeStyle;entryX=0.5;entryY=0;entryDx=0;entryDy=0;" parent="WIyWlLk6GJQsqaUBKTNV-1" source="WIyWlLk6GJQsqaUBKTNV-3" target="6IJoyPGHQD2Q8QNIXIsb-5" edge="1">
          <mxGeometry relative="1" as="geometry" />
        </mxCell>
        <mxCell id="WIyWlLk6GJQsqaUBKTNV-3" value="new decision making triggered" style="rounded=1;whiteSpace=wrap;html=1;fontSize=12;glass=0;strokeWidth=1;shadow=0;" parent="WIyWlLk6GJQsqaUBKTNV-1" vertex="1">
          <mxGeometry x="160" y="20" width="120" height="40" as="geometry" />
        </mxCell>
        <mxCell id="WIyWlLk6GJQsqaUBKTNV-4" value="thresholds not exceeded" style="rounded=0;html=1;jettySize=auto;orthogonalLoop=1;fontSize=11;endArrow=classicThin;endFill=1;endSize=8;strokeWidth=1;shadow=0;labelBackgroundColor=none;edgeStyle=orthogonalEdgeStyle;" parent="WIyWlLk6GJQsqaUBKTNV-1" source="WIyWlLk6GJQsqaUBKTNV-6" edge="1">
          <mxGeometry y="70" relative="1" as="geometry">
            <mxPoint as="offset" />
            <mxPoint x="220" y="290" as="targetPoint" />
          </mxGeometry>
        </mxCell>
        <mxCell id="WIyWlLk6GJQsqaUBKTNV-5" value="thresholds exceeded?" style="edgeStyle=orthogonalEdgeStyle;rounded=0;html=1;jettySize=auto;orthogonalLoop=1;fontSize=11;endArrow=classic;endFill=1;endSize=8;strokeWidth=1;shadow=0;labelBackgroundColor=none;" parent="WIyWlLk6GJQsqaUBKTNV-1" source="WIyWlLk6GJQsqaUBKTNV-6" target="WIyWlLk6GJQsqaUBKTNV-7" edge="1">
          <mxGeometry y="10" relative="1" as="geometry">
            <mxPoint as="offset" />
          </mxGeometry>
        </mxCell>
        <mxCell id="6IJoyPGHQD2Q8QNIXIsb-2" style="edgeStyle=orthogonalEdgeStyle;rounded=0;orthogonalLoop=1;jettySize=auto;html=1;dashed=1;endArrow=none;endFill=0;" edge="1" parent="WIyWlLk6GJQsqaUBKTNV-1" source="WIyWlLk6GJQsqaUBKTNV-6" target="6IJoyPGHQD2Q8QNIXIsb-0">
          <mxGeometry relative="1" as="geometry">
            <Array as="points">
              <mxPoint x="320" y="180" />
              <mxPoint x="320" y="150" />
            </Array>
          </mxGeometry>
        </mxCell>
        <mxCell id="WIyWlLk6GJQsqaUBKTNV-6" value="check thresholds" style="rhombus;whiteSpace=wrap;html=1;shadow=0;fontFamily=Helvetica;fontSize=12;align=center;strokeWidth=1;spacing=6;spacingTop=-4;" parent="WIyWlLk6GJQsqaUBKTNV-1" vertex="1">
          <mxGeometry x="170" y="170" width="100" height="80" as="geometry" />
        </mxCell>
        <mxCell id="WIyWlLk6GJQsqaUBKTNV-7" value="solve locally / offload" style="rounded=1;whiteSpace=wrap;html=1;fontSize=12;glass=0;strokeWidth=1;shadow=0;fillColor=#f8cecc;strokeColor=#b85450;" parent="WIyWlLk6GJQsqaUBKTNV-1" vertex="1">
          <mxGeometry x="410" y="190" width="120" height="40" as="geometry" />
        </mxCell>
        <mxCell id="6IJoyPGHQD2Q8QNIXIsb-14" style="edgeStyle=orthogonalEdgeStyle;rounded=0;orthogonalLoop=1;jettySize=auto;html=1;exitX=1;exitY=0.5;exitDx=0;exitDy=0;entryX=0;entryY=0.5;entryDx=0;entryDy=0;entryPerimeter=0;dashed=1;endArrow=none;endFill=0;" edge="1" parent="WIyWlLk6GJQsqaUBKTNV-1" source="WIyWlLk6GJQsqaUBKTNV-11" target="6IJoyPGHQD2Q8QNIXIsb-12">
          <mxGeometry relative="1" as="geometry" />
        </mxCell>
        <mxCell id="6IJoyPGHQD2Q8QNIXIsb-16" style="edgeStyle=orthogonalEdgeStyle;rounded=0;orthogonalLoop=1;jettySize=auto;html=1;entryX=0.5;entryY=1;entryDx=0;entryDy=0;entryPerimeter=0;dashed=1;endArrow=none;endFill=0;" edge="1" parent="WIyWlLk6GJQsqaUBKTNV-1" source="WIyWlLk6GJQsqaUBKTNV-11" target="6IJoyPGHQD2Q8QNIXIsb-15">
          <mxGeometry relative="1" as="geometry">
            <Array as="points">
              <mxPoint x="300" y="420" />
              <mxPoint x="300" y="480" />
              <mxPoint x="720" y="480" />
            </Array>
          </mxGeometry>
        </mxCell>
        <mxCell id="6IJoyPGHQD2Q8QNIXIsb-21" value="" style="edgeStyle=orthogonalEdgeStyle;rounded=0;orthogonalLoop=1;jettySize=auto;html=1;endArrow=classic;endFill=1;" edge="1" parent="WIyWlLk6GJQsqaUBKTNV-1" source="WIyWlLk6GJQsqaUBKTNV-11" target="6IJoyPGHQD2Q8QNIXIsb-20">
          <mxGeometry relative="1" as="geometry" />
        </mxCell>
        <mxCell id="WIyWlLk6GJQsqaUBKTNV-11" value="combine values / calculate a weighted score" style="rounded=1;whiteSpace=wrap;html=1;fontSize=12;glass=0;strokeWidth=1;shadow=0;" parent="WIyWlLk6GJQsqaUBKTNV-1" vertex="1">
          <mxGeometry x="160" y="395" width="120" height="40" as="geometry" />
        </mxCell>
        <mxCell id="6IJoyPGHQD2Q8QNIXIsb-0" value="&lt;b&gt;relevant config-properties:&lt;/b&gt;&lt;br&gt;indicators.battery-level.offloading-threshold&lt;br&gt;indicators.battery-level.locally-threshold&lt;br&gt;indicators.connectivity.offloading-threshold&lt;br&gt;indicators.connectivity.locally-threshold&lt;br&gt;indicators.cpu-usage.offloading-threshold&lt;br&gt;indicators.cpu-usage.locally-threshold&lt;br&gt;indicators.memory-usage.offloading-threshold&lt;br&gt;indicators.memory-usage.locally-threshold" style="shape=note2;boundedLbl=1;whiteSpace=wrap;html=1;size=25;verticalAlign=top;align=center;" vertex="1" parent="WIyWlLk6GJQsqaUBKTNV-1">
          <mxGeometry x="540" y="80" width="280" height="170" as="geometry" />
        </mxCell>
        <mxCell id="6IJoyPGHQD2Q8QNIXIsb-11" style="edgeStyle=orthogonalEdgeStyle;rounded=0;orthogonalLoop=1;jettySize=auto;html=1;entryX=-0.011;entryY=0.551;entryDx=0;entryDy=0;entryPerimeter=0;dashed=1;endArrow=none;endFill=0;" edge="1" parent="WIyWlLk6GJQsqaUBKTNV-1" source="6IJoyPGHQD2Q8QNIXIsb-4" target="6IJoyPGHQD2Q8QNIXIsb-10">
          <mxGeometry relative="1" as="geometry" />
        </mxCell>
        <mxCell id="6IJoyPGHQD2Q8QNIXIsb-17" style="edgeStyle=orthogonalEdgeStyle;rounded=0;orthogonalLoop=1;jettySize=auto;html=1;entryX=0.5;entryY=0;entryDx=0;entryDy=0;endArrow=classic;endFill=1;" edge="1" parent="WIyWlLk6GJQsqaUBKTNV-1" source="6IJoyPGHQD2Q8QNIXIsb-4" target="WIyWlLk6GJQsqaUBKTNV-11">
          <mxGeometry relative="1" as="geometry" />
        </mxCell>
        <mxCell id="6IJoyPGHQD2Q8QNIXIsb-4" value="normalize values" style="rounded=1;whiteSpace=wrap;html=1;" vertex="1" parent="WIyWlLk6GJQsqaUBKTNV-1">
          <mxGeometry x="167.5" y="290" width="105" height="40" as="geometry" />
        </mxCell>
        <mxCell id="6IJoyPGHQD2Q8QNIXIsb-9" style="edgeStyle=orthogonalEdgeStyle;rounded=0;orthogonalLoop=1;jettySize=auto;html=1;exitX=1;exitY=0.5;exitDx=0;exitDy=0;entryX=0;entryY=0.5;entryDx=0;entryDy=0;entryPerimeter=0;dashed=1;endArrow=none;endFill=0;" edge="1" parent="WIyWlLk6GJQsqaUBKTNV-1" source="6IJoyPGHQD2Q8QNIXIsb-5" target="6IJoyPGHQD2Q8QNIXIsb-8">
          <mxGeometry relative="1" as="geometry" />
        </mxCell>
        <mxCell id="6IJoyPGHQD2Q8QNIXIsb-5" value="get current status" style="rounded=1;whiteSpace=wrap;html=1;fontSize=12;glass=0;strokeWidth=1;shadow=0;" vertex="1" parent="WIyWlLk6GJQsqaUBKTNV-1">
          <mxGeometry x="160" y="90" width="120" height="40" as="geometry" />
        </mxCell>
        <mxCell id="6IJoyPGHQD2Q8QNIXIsb-6" value="" style="rounded=0;html=1;jettySize=auto;orthogonalLoop=1;fontSize=11;endArrow=classicThin;endFill=1;endSize=8;strokeWidth=1;shadow=0;labelBackgroundColor=none;edgeStyle=orthogonalEdgeStyle;entryX=0.5;entryY=0;entryDx=0;entryDy=0;" edge="1" parent="WIyWlLk6GJQsqaUBKTNV-1" target="WIyWlLk6GJQsqaUBKTNV-6">
          <mxGeometry relative="1" as="geometry">
            <mxPoint x="220" y="130" as="sourcePoint" />
            <mxPoint x="220" y="160" as="targetPoint" />
          </mxGeometry>
        </mxCell>
        <mxCell id="6IJoyPGHQD2Q8QNIXIsb-8" value="battery-level, connectivity, cpu-usage, memory-usage" style="shape=note2;boundedLbl=1;whiteSpace=wrap;html=1;size=25;verticalAlign=top;align=center;" vertex="1" parent="WIyWlLk6GJQsqaUBKTNV-1">
          <mxGeometry x="330" y="40" width="120" height="90" as="geometry" />
        </mxCell>
        <mxCell id="6IJoyPGHQD2Q8QNIXIsb-10" value="all values as percentage, battery-level and connectivity have a &quot;negative&quot; influence on score value" style="shape=note2;boundedLbl=1;whiteSpace=wrap;html=1;size=25;verticalAlign=top;align=center;" vertex="1" parent="WIyWlLk6GJQsqaUBKTNV-1">
          <mxGeometry x="450" y="260" width="170" height="90" as="geometry" />
        </mxCell>
        <mxCell id="6IJoyPGHQD2Q8QNIXIsb-12" value="&lt;b&gt;relevant config-properties:&lt;/b&gt;&lt;br&gt;indicators.battery-level.weight&lt;br&gt;indicators.connectivity.weight&lt;br&gt;indicators.cpu-usage.weight&lt;br&gt;indicators.memory-usage.weight" style="shape=note2;boundedLbl=1;whiteSpace=wrap;html=1;size=25;verticalAlign=top;align=center;" vertex="1" parent="WIyWlLk6GJQsqaUBKTNV-1">
          <mxGeometry x="380" y="360" width="250" height="110" as="geometry" />
        </mxCell>
        <mxCell id="6IJoyPGHQD2Q8QNIXIsb-15" value="&lt;b&gt;score-function:&lt;/b&gt;&lt;br&gt;result = 1 - offload&lt;br&gt;result = 0 - solve locally&lt;br&gt;dependent on threshold,&lt;br&gt;but closer to 1 -&amp;gt; offload,&lt;br&gt;closer to 0 -&amp;gt; solve locally" style="shape=note2;boundedLbl=1;whiteSpace=wrap;html=1;size=25;verticalAlign=top;align=center;" vertex="1" parent="WIyWlLk6GJQsqaUBKTNV-1">
          <mxGeometry x="650" y="340" width="160" height="120" as="geometry" />
        </mxCell>
        <mxCell id="6IJoyPGHQD2Q8QNIXIsb-19" value="&lt;b&gt;relevant config-properties:&lt;/b&gt;&lt;br&gt;decision-making.offload-threshold" style="shape=note2;boundedLbl=1;whiteSpace=wrap;html=1;size=25;verticalAlign=top;align=center;" vertex="1" parent="WIyWlLk6GJQsqaUBKTNV-1">
          <mxGeometry x="380" y="500" width="190" height="60" as="geometry" />
        </mxCell>
        <mxCell id="6IJoyPGHQD2Q8QNIXIsb-23" style="edgeStyle=orthogonalEdgeStyle;rounded=0;orthogonalLoop=1;jettySize=auto;html=1;entryX=0.5;entryY=0;entryDx=0;entryDy=0;endArrow=classic;endFill=1;" edge="1" parent="WIyWlLk6GJQsqaUBKTNV-1" source="6IJoyPGHQD2Q8QNIXIsb-20" target="6IJoyPGHQD2Q8QNIXIsb-22">
          <mxGeometry relative="1" as="geometry" />
        </mxCell>
        <mxCell id="6IJoyPGHQD2Q8QNIXIsb-24" value="&amp;lt; threshold" style="edgeLabel;html=1;align=center;verticalAlign=middle;resizable=0;points=[];" vertex="1" connectable="0" parent="6IJoyPGHQD2Q8QNIXIsb-23">
          <mxGeometry x="-0.318" y="1" relative="1" as="geometry">
            <mxPoint x="-50" y="-11" as="offset" />
          </mxGeometry>
        </mxCell>
        <mxCell id="6IJoyPGHQD2Q8QNIXIsb-26" style="edgeStyle=orthogonalEdgeStyle;rounded=0;orthogonalLoop=1;jettySize=auto;html=1;entryX=0.5;entryY=0;entryDx=0;entryDy=0;endArrow=classic;endFill=1;" edge="1" parent="WIyWlLk6GJQsqaUBKTNV-1" source="6IJoyPGHQD2Q8QNIXIsb-20" target="6IJoyPGHQD2Q8QNIXIsb-25">
          <mxGeometry relative="1" as="geometry" />
        </mxCell>
        <mxCell id="6IJoyPGHQD2Q8QNIXIsb-28" style="edgeStyle=orthogonalEdgeStyle;rounded=0;orthogonalLoop=1;jettySize=auto;html=1;entryX=0;entryY=0.5;entryDx=0;entryDy=0;entryPerimeter=0;endArrow=none;endFill=0;dashed=1;" edge="1" parent="WIyWlLk6GJQsqaUBKTNV-1" source="6IJoyPGHQD2Q8QNIXIsb-20" target="6IJoyPGHQD2Q8QNIXIsb-19">
          <mxGeometry relative="1" as="geometry" />
        </mxCell>
        <mxCell id="6IJoyPGHQD2Q8QNIXIsb-20" value="check offload threshold" style="rhombus;whiteSpace=wrap;html=1;shadow=0;fontFamily=Helvetica;fontSize=12;align=center;strokeWidth=1;spacing=6;spacingTop=-4;" vertex="1" parent="WIyWlLk6GJQsqaUBKTNV-1">
          <mxGeometry x="170" y="490" width="100" height="80" as="geometry" />
        </mxCell>
        <mxCell id="6IJoyPGHQD2Q8QNIXIsb-22" value="solve locally" style="rounded=1;whiteSpace=wrap;html=1;fillColor=#fff2cc;strokeColor=#d6b656;" vertex="1" parent="WIyWlLk6GJQsqaUBKTNV-1">
          <mxGeometry x="90" y="620" width="100" height="40" as="geometry" />
        </mxCell>
        <mxCell id="6IJoyPGHQD2Q8QNIXIsb-25" value="offload" style="rounded=1;whiteSpace=wrap;html=1;fillColor=#d5e8d4;strokeColor=#82b366;" vertex="1" parent="WIyWlLk6GJQsqaUBKTNV-1">
          <mxGeometry x="250" y="620" width="100" height="40" as="geometry" />
        </mxCell>
        <mxCell id="6IJoyPGHQD2Q8QNIXIsb-27" value="&amp;gt; threshold" style="edgeLabel;html=1;align=center;verticalAlign=middle;resizable=0;points=[];" vertex="1" connectable="0" parent="WIyWlLk6GJQsqaUBKTNV-1">
          <mxGeometry x="279.9999999999999" y="585" as="geometry" />
        </mxCell>
      </root>
    </mxGraphModel>
  </diagram>
</mxfile>
